<svg xmlns="http://www.w3.org/2000/svg" width="289.227" height="360.743" viewBox="0 0 289.227 360.743">
  <title>Asset 1</title>
  <g>
    <rect width="289.227" height="360.743" fill="#fff"/>
    <g>
      <g>
        <path d="M170.8,56.368h52.1v92.783H170.8ZM155.555,164.4h82.6V41.116h-82.6Z" fill="#eb5e9e"/>
        <path d="M92.471,160.663a26.051,26.051,0,1,1-26.05,26.05h0a26.079,26.079,0,0,1,26.05-26.049m0-15.248h0a41.3,41.3,0,1,0,41.3,41.3v-.005a41.3,41.3,0,0,0-41.3-41.3h0" fill="#91cfc7"/>
        <rect x="221.652" y="185.123" width="16.405" height="42.889" fill="#b0b9ca"/>
        <rect x="188.652" y="185.123" width="16.405" height="42.889" fill="#b0b9ca"/>
        <rect x="155.459" y="185.123" width="16.405" height="42.889" fill="#b0b9ca"/>
        <path d="M66.221,93.616a15.049,15.049,0,1,1-15.048,15.05,15.049,15.049,0,0,1,15.048-15.05h0" fill="#b0b9ca"/>
        <path d="M66.221,41.116A15.049,15.049,0,1,1,51.173,56.167,15.049,15.049,0,0,1,66.221,41.116h0" fill="#b0b9ca"/>
        <path d="M118.721,93.616a15.049,15.049,0,1,1-15.05,15.05,15.049,15.049,0,0,1,15.05-15.05h0" fill="#b0b9ca"/>
        <path d="M118.721,41.116a15.049,15.049,0,1,1-15.05,15.051,15.05,15.05,0,0,1,15.05-15.051h0" fill="#b0b9ca"/>
      </g>
      <g>
        <path d="M46.047,265.256h9.427l13.031,37.605H58.017L55.74,295.5H45.729l-2.224,7.362H32.964ZM54.1,288.614l-3.337-11.653-3.5,11.653Z" fill="#0c3f57"/>
        <path d="M78.888,302.861V265.256H93.347a21.172,21.172,0,0,1,8.21,1.483,16.511,16.511,0,0,1,9.539,9.983,21.557,21.557,0,0,1,1.218,7.284,21.224,21.224,0,0,1-1.35,7.759,16.822,16.822,0,0,1-3.841,5.932,17.17,17.17,0,0,1-5.986,3.814,21.413,21.413,0,0,1-7.786,1.35ZM101.822,284a12.838,12.838,0,0,0-.582-3.974,8.928,8.928,0,0,0-1.668-3.071,7.52,7.52,0,0,0-2.675-1.986,8.554,8.554,0,0,0-3.551-.715H89.215v19.6h4.132a8.451,8.451,0,0,0,3.6-.74,7.546,7.546,0,0,0,2.674-2.068,9.089,9.089,0,0,0,1.642-3.124,13.2,13.2,0,0,0,.556-3.919" fill="#0c3f57"/>
        <polygon points="128.231 265.256 134.958 281.516 141.844 265.256 153.073 265.256 140.096 290.414 140.096 302.862 129.82 302.862 129.82 290.309 117.056 265.256 128.231 265.256" fill="#0c3f57"/>
        <polygon points="163.455 302.862 163.455 265.255 173.783 265.255 173.783 293.856 190.84 293.856 190.84 302.862 163.455 302.862" fill="#0c3f57"/>
        <rect x="201.222" y="265.256" width="10.327" height="37.607" fill="#0c3f57"/>
        <path d="M220.805,283.741a18.751,18.751,0,0,1,5.084-12.766,19.365,19.365,0,0,1,6.038-4.29,20.917,20.917,0,0,1,17.558.609,14.678,14.678,0,0,1,5.959,5.959l-7.892,5.615a6.654,6.654,0,0,0-1.4-2.278,7.2,7.2,0,0,0-1.93-1.429,8.286,8.286,0,0,0-2.2-.742,11.912,11.912,0,0,0-2.2-.212,7.721,7.721,0,0,0-6.491,3.152,9.859,9.859,0,0,0-1.536,3.177,12.884,12.884,0,0,0-.5,3.524,12.147,12.147,0,0,0,.581,3.76,9.81,9.81,0,0,0,1.7,3.177,8.284,8.284,0,0,0,2.727,2.2,7.885,7.885,0,0,0,3.629.821,10.44,10.44,0,0,0,2.172-.237,8.171,8.171,0,0,0,2.145-.8,7.268,7.268,0,0,0,1.853-1.431,6.3,6.3,0,0,0,1.3-2.145l8.424,5.033a10.7,10.7,0,0,1-2.571,3.705,16.314,16.314,0,0,1-3.918,2.756,20.724,20.724,0,0,1-4.715,1.694,21.681,21.681,0,0,1-4.9.583,17.432,17.432,0,0,1-7.653-1.667,19.409,19.409,0,0,1-5.985-4.424,20.12,20.12,0,0,1-3.893-6.248,19.166,19.166,0,0,1-1.376-7.1" fill="#0c3f57"/>
        <g>
          <path d="M35.183,315.009H33.457v-1.152h4.7v1.152H36.432v4.522H35.183Z" fill="#0c3f57"/>
          <path d="M40.737,313.857h1.248V316.1h2.3v-2.246h1.248v5.674H44.287v-2.278h-2.3v2.278H40.737Z" fill="#0c3f57"/>
          <path d="M48.511,313.857h4.28v1.111h-3.04v1.15h2.675v1.111H49.751v1.191h3.08v1.111h-4.32Z" fill="#0c3f57"/>
          <path d="M59.617,313.857h2.316a1.943,1.943,0,0,1,2.159,1.7,1.908,1.908,0,0,1,.013.262v.017a2.028,2.028,0,0,1-2.294,1.993h-.945v1.7H59.617Zm2.239,2.861a.878.878,0,0,0,.982-.76.822.822,0,0,0,.006-.1v-.016c0-.559-.386-.86-1.012-.86h-.966v1.735Z" fill="#0c3f57"/>
          <path d="M66.655,313.857h2.6a2.264,2.264,0,0,1,1.654.576,1.779,1.779,0,0,1,.486,1.3v.017a1.762,1.762,0,0,1-1.216,1.758l1.39,2.027H70.1l-1.215-1.816H67.9v1.816H66.655Zm2.512,2.756c.608,0,.956-.324.956-.8v-.017c0-.534-.373-.811-.98-.811H67.9v1.63Z" fill="#0c3f57"/>
          <path d="M73.883,316.71v-.016a3.017,3.017,0,0,1,6.03-.016v.016a3.017,3.017,0,0,1-6.03.016Zm4.725,0v-.016a1.724,1.724,0,0,0-1.663-1.782H76.89a1.7,1.7,0,0,0-1.7,1.693c0,.025,0,.049,0,.074v.016a1.724,1.724,0,0,0,1.663,1.782h.056a1.7,1.7,0,0,0,1.7-1.692c0-.025,0-.05,0-.075Z" fill="#0c3f57"/>
          <path d="M82.4,316.71v-.016a2.912,2.912,0,0,1,2.89-2.934h.085a3.12,3.12,0,0,1,2.229.779l-.786.949a2.081,2.081,0,0,0-1.483-.576,1.7,1.7,0,0,0-1.629,1.767v.016a1.7,1.7,0,0,0,1.595,1.8q.061,0,.123,0a1.986,1.986,0,0,0,1.176-.341v-.81H85.34v-1.08H87.8v2.463a3.684,3.684,0,0,1-2.424.9,2.84,2.84,0,0,1-2.98-2.692C82.4,316.859,82.4,316.785,82.4,316.71Z" fill="#0c3f57"/>
          <path d="M90.618,313.857h2.594a2.26,2.26,0,0,1,1.653.576,1.78,1.78,0,0,1,.487,1.3v.017a1.762,1.762,0,0,1-1.216,1.758l1.389,2.027H94.066l-1.215-1.816h-.98v1.816H90.618Zm2.512,2.756c.609,0,.957-.324.957-.8v-.017c0-.534-.373-.811-.98-.811h-1.24v1.63Z" fill="#0c3f57"/>
          <path d="M100.046,313.817H101.2l2.431,5.713h-1.305l-.519-1.272h-2.4l-.518,1.272H97.615Zm1.312,3.339-.754-1.84-.754,1.84Z" fill="#0c3f57"/>
          <path d="M106.119,313.857h1.348l1.492,2.4,1.492-2.4h1.34v5.674h-1.235v-3.706l-1.6,2.424h-.032l-1.581-2.4v3.679h-1.227Z" fill="#0c3f57"/>
          <path d="M114.768,313.857h1.346l1.492,2.4,1.491-2.4h1.346v5.674H119.2v-3.706l-1.6,2.424h-.032l-1.581-2.4v3.679h-1.224Z" fill="#0c3f57"/>
          <path d="M125.364,313.817h1.151l2.431,5.713h-1.3l-.519-1.272h-2.4l-.518,1.272h-1.273Zm1.312,3.339-.754-1.84-.754,1.84Z" fill="#0c3f57"/>
          <path d="M132.036,315.009h-1.727v-1.152h4.7v1.152h-1.727v4.522h-1.247Z" fill="#0c3f57"/>
          <path d="M137.638,313.857h1.247v5.674h-1.247Z" fill="#0c3f57"/>
          <path d="M141.675,316.71v-.016a2.883,2.883,0,0,1,2.832-2.934h.126a2.926,2.926,0,0,1,2.238.876l-.794.916a2.1,2.1,0,0,0-1.451-.64,1.68,1.68,0,0,0-1.648,1.713l0,.054v.016a1.686,1.686,0,0,0,1.585,1.78l.061,0a2.048,2.048,0,0,0,1.491-.665l.8.8a2.9,2.9,0,0,1-2.327,1.014,2.863,2.863,0,0,1-2.91-2.816C141.674,316.779,141.674,316.745,141.675,316.71Z" fill="#0c3f57"/>
          <path d="M153.333,316.71v-.016a2.882,2.882,0,0,1,2.83-2.934h.128a2.926,2.926,0,0,1,2.238.876l-.795.916a2.087,2.087,0,0,0-1.45-.64,1.68,1.68,0,0,0-1.648,1.713l0,.054v.016a1.685,1.685,0,0,0,1.584,1.78l.062,0a2.05,2.05,0,0,0,1.491-.665l.794.8a2.9,2.9,0,0,1-2.326,1.014,2.863,2.863,0,0,1-2.91-2.816C153.332,316.779,153.332,316.745,153.333,316.71Z" fill="#0c3f57"/>
          <path d="M161.188,313.857h2.593a2.264,2.264,0,0,1,1.654.576,1.783,1.783,0,0,1,.486,1.3v.017a1.762,1.762,0,0,1-1.216,1.758l1.386,2.027h-1.458l-1.216-1.816h-.979v1.816H161.19Zm2.513,2.756c.607,0,.955-.324.955-.8v-.017c0-.534-.372-.811-.98-.811h-1.238v1.63Z" fill="#0c3f57"/>
          <path d="M168.67,313.857h4.28v1.111h-3.039v1.15h2.674v1.111h-2.674v1.191h3.08v1.111h-4.324Z" fill="#0c3f57"/>
          <path d="M177.669,313.817h1.15l2.432,5.713h-1.305l-.519-1.272h-2.4l-.518,1.272h-1.273Zm1.312,3.339-.754-1.84-.754,1.84Z" fill="#0c3f57"/>
          <path d="M184.341,315.009h-1.727v-1.152h4.7v1.152h-1.727v4.522h-1.248Z" fill="#0c3f57"/>
          <path d="M189.943,313.857h1.248v5.674h-1.248Z" fill="#0c3f57"/>
          <path d="M193.745,313.857h1.377l1.484,4,1.483-4h1.346l-2.294,5.713h-1.1Z" fill="#0c3f57"/>
          <path d="M201.924,313.857h4.28v1.111h-3.039v1.15h2.674v1.111h-2.674v1.191h3.08v1.111h-4.324Z" fill="#0c3f57"/>
          <path d="M214.968,313.817h1.15l2.433,5.713h-1.3l-.519-1.272h-2.4l-.519,1.272h-1.272Zm1.312,3.339-.753-1.84-.754,1.84Z" fill="#0c3f57"/>
          <path d="M220.424,316.71v-.016a2.912,2.912,0,0,1,2.89-2.934h.085a3.122,3.122,0,0,1,2.229.779l-.786.949a2.084,2.084,0,0,0-1.484-.576,1.7,1.7,0,0,0-1.628,1.767v.016a1.7,1.7,0,0,0,1.595,1.8c.04,0,.081,0,.122,0a1.986,1.986,0,0,0,1.176-.341v-.81h-1.257v-1.08h2.464v2.463a3.679,3.679,0,0,1-2.423.9,2.839,2.839,0,0,1-2.98-2.692C220.423,316.86,220.422,316.785,220.424,316.71Z" fill="#0c3f57"/>
          <path d="M228.653,313.857h4.28v1.111h-3.04v1.15h2.675v1.111h-2.675v1.191h3.08v1.111h-4.32Z" fill="#0c3f57"/>
          <path d="M235.7,313.857h1.151l2.659,3.493v-3.493h1.235v5.674h-1.062l-2.748-3.607v3.607H235.7Z" fill="#0c3f57"/>
          <path d="M243.464,316.71v-.016a2.884,2.884,0,0,1,2.832-2.934h.127a2.93,2.93,0,0,1,2.239.876l-.8.916a2.091,2.091,0,0,0-1.45-.64,1.679,1.679,0,0,0-1.647,1.713l0,.054v.016a1.683,1.683,0,0,0,1.583,1.78l.062,0a2.044,2.044,0,0,0,1.491-.665l.794.8a2.9,2.9,0,0,1-2.325,1.014,2.864,2.864,0,0,1-2.913-2.814Z" fill="#0c3f57"/>
          <path d="M252.836,317.294l-2.181-3.437h1.459l1.353,2.278,1.378-2.278h1.419l-2.181,3.412v2.262h-1.247Z" fill="#0c3f57"/>
        </g>
      </g>
    </g>
  </g>
</svg>
